<?xml version="1.0" standalone="no"?><!DOCTYPE svg PUBLIC "-//W3C//DTD SVG 1.1//EN" "http://www.w3.org/Graphics/SVG/1.1/DTD/svg11.dtd"><svg t="1542513576323" class="icon" style="" viewBox="0 0 1024 1024" version="1.1" xmlns="http://www.w3.org/2000/svg" p-id="6435" xmlns:xlink="http://www.w3.org/1999/xlink" width="256" height="256"><defs><style type="text/css"></style></defs><path d="M744.9 118.9c-61.5 61.5-63.5 167.8-2 229.3s177 54.6 238.5-6.8L744.9 118.9z m0 0" fill="#74A2CA" p-id="6436"></path><path d="M651.4 516.6h321.4V685H651.4z" fill="#F0BB5D" p-id="6437"></path><path d="M414.2 669.7c-29.6 0-53.6-24-53.6-53.6V509c0-29.6 24-53.6 53.6-53.6s53.6 24 53.6 53.6v107.1c-0.1 29.6-24 53.6-53.6 53.6z m0 0" fill="#74A2CA" p-id="6438"></path><path d="M414.2 669.7c-29.6 0-53.6-24-53.6-53.6V509c0-29.6 24-53.6 53.6-53.6s53.6 24 53.6 53.6v107.1c-0.1 29.6-24 53.6-53.6 53.6z m0 0" fill="#74A2CA" p-id="6439"></path><path d="M467.2 501.3c0.4 2.5 0.6 5.1 0.6 7.7v107.1c0 29.6-24 53.6-53.6 53.6s-53.6-24-53.6-53.6V509c0-2.6 0.2-5.2 0.5-7.7h-48c-7.1 34.9-38 61.2-75 61.2h-153v187.6c17.4-12.1 38.5-19.2 61.2-19.2 54 0 98.6 39.9 106 91.8h94.1c7.4-51.9 52.1-91.8 106-91.8 22.8 0 43.9 7.1 61.2 19.2V501.3h-46.4z m0 0" fill="#206BAB" p-id="6440"></path><path d="M312.4 501.3h48.8c3.7-26 26-45.9 53-45.9s49.3 20 53 45.9h46.5l-0.8-121.1c0-26.1-21.2-47.3-47.3-47.3h-334c-26.1 0-47.3 21.2-47.3 47.3v29.3h153.1c42.3 0 76.5 34.3 76.5 76.5 0 5.3-0.5 10.4-1.5 15.3z m0 0" fill="#F0BB5D" p-id="6441"></path><path d="M253.5 838c0 59.2-48 107.1-107.1 107.1S39.2 897.2 39.2 838s48-107.1 107.1-107.1 107.2 48 107.2 107.1z m0 0M559.6 838c0 59.2-48 107.1-107.1 107.1s-107.1-48-107.1-107.1 48-107.1 107.1-107.1 107.1 48 107.1 107.1z m0 0M942.2 838c0 59.2-48 107.1-107.1 107.1-59.2 0-107.1-48-107.1-107.1s48-107.1 107.1-107.1c59.1 0 107.1 48 107.1 107.1z m0 0" fill="#EEAC38" p-id="6442"></path><path d="M651.4 685v137.7H729c7.4-51.9 52.1-91.8 106-91.8 54 0 98.6 39.9 106 91.8h31.7V685H651.4z m0 0" fill="#206BAB" p-id="6443"></path><path d="M207.6 838c0 33.8-27.4 61.2-61.2 61.2-33.8 0-61.2-27.4-61.2-61.2 0-33.8 27.4-61.2 61.2-61.2 33.7 0 61.2 27.4 61.2 61.2z m0 0M513.7 838c0 33.8-27.4 61.2-61.2 61.2-33.8 0-61.2-27.4-61.2-61.2 0-33.8 27.4-61.2 61.2-61.2 33.8 0 61.2 27.4 61.2 61.2z m0 0M896.3 838c0 33.8-27.4 61.2-61.2 61.2-33.8 0-61.2-27.4-61.2-61.2 0-33.8 27.4-61.2 61.2-61.2 33.8 0 61.2 27.4 61.2 61.2z m0 0" fill="#FFFFFF" p-id="6444"></path><path d="M146.3 914.2c-42 0-76.2-34.2-76.2-76.2s34.2-76.2 76.2-76.2 76.2 34.2 76.2 76.2c0 42.1-34.2 76.2-76.2 76.2z m0-122.4c-25.5 0-46.3 20.8-46.3 46.3 0 25.5 20.7 46.3 46.3 46.3 25.5 0 46.3-20.8 46.3-46.3 0-25.6-20.8-46.3-46.3-46.3z m0 0M452.4 914.2c-42 0-76.2-34.2-76.2-76.2s34.2-76.2 76.2-76.2 76.2 34.2 76.2 76.2c0 42.1-34.2 76.2-76.2 76.2z m0-122.4c-25.5 0-46.3 20.8-46.3 46.3 0 25.5 20.8 46.3 46.3 46.3 25.5 0 46.3-20.8 46.3-46.3 0-25.6-20.7-46.3-46.3-46.3z m0 0" fill="#1C1C1A" p-id="6445"></path><path d="M131 823.1h30.6V853H131zM437.1 823.1h30.6V853h-30.6zM835.1 914.2c-42 0-76.2-34.2-76.2-76.2s34.2-76.2 76.2-76.2 76.2 34.2 76.2 76.2c0 42.1-34.2 76.2-76.2 76.2z m0-122.4c-25.5 0-46.3 20.8-46.3 46.3 0 25.5 20.8 46.3 46.3 46.3 25.5 0 46.3-20.8 46.3-46.3 0-25.6-20.8-46.3-46.3-46.3z m0 0" fill="#1C1C1A" p-id="6446"></path><path d="M819.8 823.1h30.6V853h-30.6zM391.6 547.2h29.9v30.6h-29.9zM314.3 638.7H192.6v-45.6h29.9v15.7h61.9v-15.7h29.9v45.6z m0 0M314.3 715.3H192.6v-45.6h29.9v15.7h61.9v-15.7h29.9v45.6z m0 0M452.1 302H345.3v-29.9h76.9v-184h29.9V302z m0 0" fill="#1C1C1A" p-id="6447"></path><path d="M422.2 42.1h29.9v30.6h-29.9z" fill="#EEAC38" p-id="6448"></path><path d="M314.7 379.2h30.6v29.9h-30.6zM375.9 379.2h30.6v29.9h-30.6zM437.1 379.2h30.6v29.9h-30.6z" fill="#FFFFFF" p-id="6449"></path><path d="M881.2 235.1l29.3-29.3-21.1-21.1-29.3 29.3L743.6 97.5 733 108.1c-33.2 33.2-51.5 77.3-51.5 124.2 0 41.9 14.6 81.5 41.4 113.2l-84.8 84.8V484h154.6v-30H668.1v-11.4l76-76c31.6 26.7 71.3 41.4 113.2 41.4 46.9 0 91-18.3 124.2-51.4l10.6-10.6-110.9-110.9z m-23.9 143c-38.9 0-75.5-15.2-103.1-42.7-53.3-53.3-56.6-137.8-10-195l205.1 205.1c-26 21.1-58.1 32.6-92 32.6z m0 0" fill="#1C1C1A" p-id="6450"></path><path d="M697.3 562.9h107.1v29.9H697.3zM697.3 608.8h61.2v29.9h-61.2z" fill="#FFFFFF" p-id="6451"></path><path d="M987.8 501.7H636.5v107.1h-15.7v29.9h15.7v199H713v0.4c0 67.3 54.8 122.1 122.1 122.1s122.1-54.8 122.1-122.1v-0.4h30.6v-336zM835.1 930.2c-50.8 0-92.2-41.4-92.2-92.2 0-50.8 41.4-92.2 92.2-92.2 50.8 0 92.2 41.4 92.2 92.2 0 50.9-41.4 92.2-92.2 92.2z m122.8-122.4h-4.5C939.9 755.1 892 716 835.1 716s-104.8 39.1-118.3 91.8h-50.4V699.9h291.5v107.9z m0-137.8H666.4V531.6h291.5V670z m0 0M528.6 740.8V638.7h15.7v-29.9h-15.7V378.6c0-33.4-27.2-60.6-60.6-60.6H130.7c-33.4 0-60.6 27.2-60.6 60.6v364.2c-28 22.4-45.9 56.8-45.9 95.3 0 67.3 54.8 122.1 122.1 122.1S268.4 905.4 268.4 838v-0.3h64.4v0.3c0 67.3 54.8 122.1 122.1 122.1S577 905.3 577 838c-0.1-39.6-19-74.8-48.4-97.2zM100.1 378.6c0-16.9 13.8-30.7 30.7-30.7H468c16.9 0 30.7 13.8 30.7 30.7v107.8h-19.9c-9.4-26.7-34.8-45.9-64.7-45.9-29.9 0-55.3 19.2-64.7 45.9h-19.9v-0.3c0-50.4-41-91.5-91.5-91.5H100l0.1-16zM452.8 509v107.1c0 21.3-17.3 38.6-38.6 38.6s-38.6-17.3-38.6-38.6V509c0-21.3 17.3-38.6 38.6-38.6s38.6 17.3 38.6 38.6z m-352.7-84.6h138.1c33.9 0 61.6 27.6 61.6 61.6s-27.6 61.6-61.6 61.6h-76.9V486h-29.9v61.6h-31.3V424.4z m46.2 505.8c-50.8 0-92.2-41.4-92.2-92.2 0-50.8 41.4-92.2 92.2-92.2 50.8 0 92.2 41.4 92.2 92.2 0 50.9-41.3 92.2-92.2 92.2z m118.3-122.4c-13.5-52.7-61.4-91.8-118.3-91.8-16.4 0-32 3.3-46.3 9.1V577.5h138.1c39.8 0 73.8-25.6 86.3-61.2h21.2v99.8c0 37.8 30.7 68.5 68.5 68.5s68.5-30.7 68.5-68.5v-99.8h16v207.9c-13.6-5.3-28.4-8.2-43.9-8.2-56.9 0-104.8 39.1-118.3 91.8h-71.8z m190.3 122.4c-50.8 0-92.2-41.4-92.2-92.2 0-50.8 41.4-92.2 92.2-92.2 50.8 0 92.2 41.4 92.2 92.2-0.1 50.9-41.4 92.2-92.2 92.2z m0 0M559.6 608.8h45.9v29.9h-45.9z" fill="#1C1C1A" p-id="6452"></path></svg>